#!OML:ASF H:\Dans Jumps\Project 1\Capture day 1\Session 1\subject.ASF
:FULLY-SPECIFIED
:DEGREES
593
root 0.484176 17.5832 7.01338 7.3734 -3.30165 -1.79032
lowerback -4.57672 -0.859232 0.00466386
upperback 0.567849 -1.1914 1.4261
thorax 3.18131 -0.606037 1.37892
lowerneck -4.21193 -9.36907 -5.79926
upperneck 3.62937 -12.374 4.30159
head 2.58108 -6.14291 1.87715
rclavicle 2.82026e-015 -9.93923e-015
rhumerus -27.5593 -18.5235 -78.9015
rradius 21.7366
rwrist 38.8203
rhand -18.6767 -26.3246
rfingers 7.12502
rthumb 7.61718 -56.1674
lclavicle 2.82026e-015 -9.93923e-015
lhumerus -29.6711 4.0741 87.0858
lradius 19.2585
lwrist 5.30944
lhand -25.5473 -2.18963
lfingers 7.12502
lthumb 0.98293 27.7878
rfemur -12.7172 -1.74549 20.0904
rtibia 23.6194
rfoot -16.5123 1.80678
rtoes 12.7895
lfemur -10.3775 9.66873 -18.0311
ltibia 20.5686
lfoot -13.2473 7.96022
ltoes -0.499547
594
root 0.483641 17.5834 7.01182 7.37766 -3.30393 -1.78965
lowerback -4.5774 -0.850933 0.00780718
upperback 0.573604 -1.18049 1.42302
thorax 3.18723 -0.600549 1.37474
lowerneck -4.20761 -9.34187 -5.74582
upperneck 3.54783 -12.3365 4.26214
head 2.54345 -6.12454 1.85977
rclavicle -1.20513e-015 -2.14687e-014
rhumerus -27.5006 -18.4659 -78.9273
rradius 21.7768
rwrist 38.7568
rhand -18.6877 -26.3549
rfingers 7.12502
rthumb 7.60658 -56.1981
lclavicle -1.20513e-015 -2.14687e-014
lhumerus -29.6468 4.05546 87.0819
lradius 19.273
lwrist 5.32852
lhand -25.534 -2.16819
lfingers 7.12502
lthumb 0.995832 27.8092
rfemur -12.7306 -1.74154 20.092
rtibia 23.6246
rfoot -16.5104 1.80461
rtoes 12.7786
lfemur -10.3881 9.67702 -18.0312
ltibia 20.5686
lfoot -13.2454 7.94967
ltoes -0.47919
595
root 0.483157 17.5835 7.01032 7.37983 -3.30109 -1.78942
lowerback -4.5737 -0.844488 0.0105558
upperback 0.577269 -1.17203 1.42197
thorax 3.18864 -0.596293 1.37276
lowerneck -4.19897 -9.31324 -5.69989
upperneck 3.46984 -12.2969 4.22059
head 2.50662 -6.10535 1.8432
rclavicle 1.19644e-014 1.39149e-014
rhumerus -27.4426 -18.4134 -78.9458
rradius 21.8106
rwrist 38.7023
rhand -18.6979 -26.3837
rfingers 7.12502
rthumb 7.59673 -56.2273
lclavicle 1.19644e-014 1.39149e-014
lhumerus -29.6222 4.04381 87.0796
lradius 19.2781
lwrist 5.32284
lhand -25.5404 -2.20032
lfingers 7.12502
lthumb 0.98968 27.7771
rfemur -12.7405 -1.73861 20.0942
rtibia 23.6291
rfoot -16.5088 1.79941
rtoes 12.7708
lfemur -10.3972 9.68058 -18.0303
ltibia 20.569
lfoot -13.2447 7.93871
ltoes -0.455677
596
root 0.482726 17.5836 7.00885 7.38117 -3.29609 -1.78895
lowerback -4.56803 -0.839001 0.0138485
upperback 0.580037 -1.16484 1.42064
thorax 3.18803 -0.592651 1.37013
lowerneck -4.19227 -9.28347 -5.65135
upperneck 3.39406 -12.2557 4.17515
head 2.47039 -6.08539 1.8249
rclavicle 1.63997e-014 -1.70955e-014
rhumerus -27.3846 -18.3612 -78.9637
rradius 21.8414
rwrist 38.65
rhand -18.7084 -26.4104
rfingers 7.12502
rthumb 7.58662 -56.2543
lclavicle 1.63997e-014 -1.70955e-014
lhumerus -29.5969 4.04125 87.0748
lradius 19.281
lwrist 5.29907
lhand -25.5608 -2.27079
lfingers 7.12502
lthumb 0.969976 27.7067
rfemur -12.749 -1.73728 20.0957
rtibia 23.6332
rfoot -16.5071 1.79472
rtoes 12.7722
lfemur -10.4064 9.68459 -18.0296
ltibia 20.5701
lfoot -13.245 7.9261
ltoes -0.436951
597
root 0.482369 17.5838 7.00731 7.38432 -3.28445 -1.78666
lowerback -4.56191 -0.831323 0.018693
upperback 0.574424 -1.1547 1.41928
thorax 3.17842 -0.587463 1.36687
lowerneck -4.15448 -9.25154 -5.62464
upperneck 3.31174 -12.2123 4.14008
head 2.42881 -6.06481 1.81527
rclavicle -7.25564e-015 1.12313e-014
rhumerus -27.3436 -18.3284 -78.962
rradius 21.8658
rwrist 38.6094
rhand -18.7125 -26.4313
rfingers 7.12502
rthumb 7.5827 -56.2754
lclavicle -7.25564e-015 1.12313e-014
lhumerus -29.5825 4.01184 87.0842
lradius 19.2795
lwrist 5.28368
lhand -25.6013 -2.3792
lfingers 7.12502
lthumb 0.930855 27.5985
rfemur -12.7591 -1.73738 20.0958
rtibia 23.6369
rfoot -16.5035 1.78515
rtoes 12.7822
lfemur -10.4193 9.68263 -18.031
ltibia 20.571
lfoot -13.2434 7.91394
ltoes -0.42247
598
root 0.482138 17.5838 7.00593 7.3837 -3.26408 -1.78477
lowerback -4.54926 -0.826637 0.0236707
upperback 0.566793 -1.14855 1.42011
thorax 3.16319 -0.584262 1.36559
lowerneck -4.11849 -9.21286 -5.60891
upperneck 3.23457 -12.1593 4.10275
head 2.38954 -6.03954 1.80701
rclavicle 7.46685e-015 -2.68359e-015
rhumerus -27.3045 -18.312 -78.9478
rradius 21.8785
rwrist 38.5886
rhand -18.719 -26.4432
rfingers 7.12502
rthumb 7.5764 -56.2875
lclavicle 7.46685e-015 -2.68359e-015
lhumerus -29.5727 3.989 87.0954
lradius 19.2805
lwrist 5.25932
lhand -25.6349 -2.47219
lfingers 7.12502
lthumb 0.898324 27.5057
rfemur -12.7638 -1.74255 20.0968
rtibia 23.6406
rfoot -16.5 1.77164
rtoes 12.7939
lfemur -10.4284 9.67326 -18.0306
ltibia 20.5714
lfoot -13.2408 7.90196
ltoes -0.415722
599
root 0.48203 17.5838 7.00473 7.38036 -3.23722 -1.7812
lowerback -4.53208 -0.824217 0.027785
upperback 0.55631 -1.1453 1.42128
thorax 3.14257 -0.582507 1.36503
lowerneck -4.07723 -9.16822 -5.59698
upperneck 3.15734 -12.0982 4.06112
head 2.34892 -6.01043 1.79866
rclavicle 2.17296e-014 -1.90833e-014
rhumerus -27.2717 -18.3103 -78.9237
rradius 21.8854
rwrist 38.5857
rhand -18.7299 -26.4401
rfingers 7.12502
rthumb 7.5659 -56.2847
lclavicle 2.17296e-014 -1.90833e-014
lhumerus -29.569 3.97004 87.1079
lradius 19.2874
lwrist 5.23635
lhand -25.6719 -2.54836
lfingers 7.12502
lthumb 0.862642 27.4296
rfemur -12.7645 -1.75162 20.0963
rtibia 23.6459
rfoot -16.4996 1.75399
rtoes 12.7968
lfemur -10.4335 9.6602 -18.0314
ltibia 20.5687
lfoot -13.2369 7.88792
ltoes -0.41712
600
root 0.481966 17.5838 7.0037 7.37572 -3.21122 -1.77652
lowerback -4.51549 -0.822813 0.0304997
upperback 0.545071 -1.14335 1.42326
thorax 3.12159 -0.581427 1.36599
lowerneck -4.02452 -9.11899 -5.58759
upperneck 3.07182 -12.0312 4.01919
head 2.30344 -5.97856 1.79161
rclavicle -2.04997e-015 -7.95139e-015
rhumerus -27.2385 -18.3079 -78.8976
rradius 21.8883
rwrist 38.5874
rhand -18.7453 -26.4332
rfingers 7.12502
rthumb 7.55097 -56.2785
lclavicle -2.04997e-015 -7.95139e-015
lhumerus -29.5683 3.95401 87.1223
lradius 19.2967
lwrist 5.22028
lhand -25.6975 -2.59221
lfingers 7.12502
lthumb 0.837911 27.3859
rfemur -12.7637 -1.76291 20.0944
rtibia 23.6518
rfoot -16.5014 1.73767
rtoes 12.7873
lfemur -10.4352 9.64964 -18.0334
ltibia 20.5638
lfoot -13.232 7.87187
ltoes -0.41684
601
root 0.482036 17.5837 7.00288 7.36938 -3.1819 -1.76085
lowerback -4.49831 -0.824189 0.0221543
upperback 0.532805 -1.14443 1.42388
thorax 3.09947 -0.582031 1.37155
lowerneck -3.96824 -9.06401 -5.58143
upperneck 2.98119 -11.9564 3.97408
head 2.25534 -5.94286 1.7847
rclavicle 1.50455e-014 -2.18663e-015
rhumerus -27.2067 -18.3095 -78.8663
rradius 21.8881
rwrist 38.5981
rhand -18.7503 -26.4245
rfingers 7.12502
rthumb 7.54617 -56.2699
lclavicle 1.50455e-014 -2.18663e-015
lhumerus -29.5731 3.94455 87.1385
lradius 19.3123
lwrist 5.20751
lhand -25.709 -2.6004
lfingers 7.12502
lthumb 0.826814 27.3777
rfemur -12.7608 -1.7814 20.0799
rtibia 23.6589
rfoot -16.5071 1.72477
rtoes 12.7755
lfemur -10.4325 9.63743 -18.0479
ltibia 20.5534
lfoot -13.2252 7.85374
ltoes -0.424412
602
root 0.481895 17.5837 7.00192 7.36815 -3.16752 -1.74879
lowerback -4.49266 -0.821528 0.0177117
upperback 0.524031 -1.14044 1.42269
thorax 3.0872 -0.58005 1.37323
lowerneck -3.91015 -9.01056 -5.54611
upperneck 2.87202 -11.8847 3.9211
head 2.19831 -5.90846 1.77073
rclavicle -1.83876e-015 -8.64713e-015
rhumerus -27.1688 -18.2879 -78.8545
rradius 21.9026
rwrist 38.5854
rhand -18.7408 -26.4368
rfingers 7.12502
rthumb 7.55534 -56.2819
lclavicle -1.83876e-015 -8.64713e-015
lhumerus -29.5706 3.92683 87.1544
lradius 19.3292
lwrist 5.21758
lhand -25.7288 -2.61929
lfingers 7.12502
lthumb 0.807714 27.3589
rfemur -12.7666 -1.78866 20.0687
rtibia 23.6674
rfoot -16.5112 1.71658
rtoes 12.768
lfemur -10.4309 9.63569 -18.0602
ltibia 20.5377
lfoot -13.2142 7.83997
ltoes -0.441804
603
root 0.482024 17.5838 7.00192 7.36606 -3.15397 -1.7304
lowerback -4.5015 -0.82298 0.00904523
upperback 0.527344 -1.14189 1.41881
thorax 3.09572 -0.580914 1.37385
lowerneck -3.85423 -8.94652 -5.50662
upperneck 2.73571 -11.7987 3.87708
head 2.13256 -5.86666 1.76005
rclavicle -1.22128e-014 -8.94531e-016
rhumerus -27.1049 -18.2687 -78.8549
rradius 21.91
rwrist 38.5804
rhand -18.7354 -26.4414
rfingers 7.12502
rthumb 7.56051 -56.2863
lclavicle -1.22128e-014 -8.94531e-016
lhumerus -29.5488 3.89736 87.1733
lradius 19.3447
lwrist 5.25724
lhand -25.7475 -2.63817
lfingers 7.12502
lthumb 0.789641 27.3401
rfemur -12.7677 -1.81091 20.0483
rtibia 23.6762
rfoot -16.5203 1.72481
rtoes 12.7717
lfemur -10.4217 9.63748 -18.0806
ltibia 20.5179
lfoot -13.2073 7.8245
ltoes -0.46466
604
root 0.482102 17.5839 7.00181 7.36637 -3.13882 -1.70725
lowerback -4.51216 -0.824222 -0.00454735
upperback 0.529675 -1.14276 1.41407
thorax 3.10431 -0.581563 1.37638
lowerneck -3.79319 -8.87413 -5.46154
upperneck 2.58685 -11.7018 3.82839
head 2.06074 -5.81942 1.7479
rclavicle 8.90804e-015 1.71949e-014
rhumerus -27.0403 -18.2512 -78.8537
rradius 21.9157
rwrist 38.5734
rhand -18.7337 -26.4385
rfingers 7.12502
rthumb 7.56222 -56.2833
lclavicle 8.90804e-015 1.71949e-014
lhumerus -29.5253 3.85919 87.1964
lradius 19.3639
lwrist 5.30979
lhand -25.7592 -2.64576
lfingers 7.12502
lthumb 0.778274 27.3326
rfemur -12.771 -1.83283 20.023
rtibia 23.6829
rfoot -16.5277 1.73026
rtoes 12.7816
lfemur -10.4167 9.63531 -18.1065
ltibia 20.4992
lfoot -13.2004 7.81062
ltoes -0.490273
605
root 0.482141 17.584 7.00161 7.36587 -3.12315 -1.69345
lowerback -4.51972 -0.824959 -0.00846621
upperback 0.532351 -1.14355 1.4119
thorax 3.11137 -0.582028 1.37617
lowerneck -3.73749 -8.79289 -5.40817
upperneck 2.43557 -11.593 3.77182
head 1.98763 -5.76618 1.73211
rclavicle 2.36057e-015 2.18663e-015
rhumerus -26.9747 -18.2368 -78.8528
rradius 21.9205
rwrist 38.5668
rhand -18.7345 -26.4362
rfingers 7.12502
rthumb 7.56139 -56.2811
lclavicle 2.36057e-015 2.18663e-015
lhumerus -29.5029 3.81287 87.2244
lradius 19.3762
lwrist 5.35155
lhand -25.7903 -2.69142
lfingers 7.12502
lthumb 0.748288 27.287
rfemur -12.7713 -1.85135 20.0084
rtibia 23.6864
rfoot -16.5319 1.73359
rtoes 12.8009
lfemur -10.4122 9.63116 -18.1214
ltibia 20.4839
lfoot -13.1936 7.79959
ltoes -0.519702
